# xmcd CD database file
#
# Track frame offsets:
#	150
#	19726
#	32281
#	50482
#	70223
#	97779
#	115974
#	140341
#	169827
#
# Disc length: 2467 seconds
#
# Revision: 0
# Processed by: cddbd v1.5.2PL0 Copyright (c) Steve Scherf et al.
# Submitted via: CDex 1.70beta2
#
DISCID=6c09a109
DTITLE=Bernd Rinser - Got You
DYEAR=1900
DGENRE=Blues
TTITLE0=Luck
TTITLE1=Bible Belt
TTITLE2=Got You
TTITLE3=Guardian Angel
TTITLE4=If
TTITLE5=Blues Around Midnight
TTITLE6=Eyes Cold As Ice
TTITLE7=The Chapel
TTITLE8=Goodbye Drab Days
EXTD=
EXTT0=
EXTT1=
EXTT2=
EXTT3=
EXTT4=
EXTT5=
EXTT6=
EXTT7=
EXTT8=
PLAYORDER=
